<?xml version="1.0" standalone="no"?>
<!DOCTYPE svg PUBLIC "-//W3C//DTD SVG 20010904//EN"
 "http://www.w3.org/TR/2001/REC-SVG-20010904/DTD/svg10.dtd">
<svg version="1.0" xmlns="http://www.w3.org/2000/svg"
 width="1844.000000pt" fill="blue" height="410.000000pt" viewBox="0 0 1844.000000 410.000000"
 preserveAspectRatio="xMidYMid meet">

<g transform="translate(0.000000,410.000000) scale(0.100000,-0.100000)"
fill="#000000" stroke="none">
<path d="M100 2005 l0 -1105 4605 0 4605 0 0 1105 0 1105 -4605 0 -4605 0 0
-1105z m4800 487 c76 -27 152 -66 171 -88 16 -18 14 -26 -27 -119 -24 -55 -45
-104 -47 -110 -2 -5 -42 9 -88 32 -125 63 -259 74 -346 29 -47 -24 -99 -89
-119 -147 -25 -75 -25 -243 0 -318 20 -58 72 -123 118 -147 89 -46 217 -36
346 27 46 22 85 39 87 37 1 -1 23 -52 48 -111 l45 -108 -21 -20 c-69 -65 -222
-109 -376 -109 -188 0 -319 48 -427 156 -219 218 -221 647 -4 864 62 62 169
123 256 145 86 21 310 14 384 -13z m1012 17 c86 -18 192 -73 253 -129 71 -68
111 -132 143 -228 23 -69 26 -93 26 -222 0 -133 -2 -152 -27 -223 -66 -189
-197 -309 -384 -353 -98 -23 -295 -15 -382 15 -232 80 -361 283 -361 564 1
179 48 311 151 421 66 72 162 128 255 150 72 17 254 20 326 5z m-5082 -379
c91 -209 168 -376 172 -372 4 4 79 174 167 377 l159 370 126 3 126 3 0 -581 0
-580 -140 0 -140 0 -2 236 -3 236 -96 -234 -97 -233 -105 -3 -104 -3 -58 138
c-32 76 -78 183 -101 238 l-43 100 -1 -237 0 -238 -140 0 -140 0 0 580 0 580
128 0 128 0 164 -380z m1843 -193 c147 -315 267 -576 267 -580 0 -4 -71 -6
-157 -5 l-157 3 -49 113 -50 112 -245 -2 -246 -3 -49 -112 -50 -113 -158 0
c-88 0 -159 3 -159 6 0 4 120 265 266 580 l267 574 127 0 126 0 267 -573z
m1031 557 c111 -28 186 -87 228 -179 33 -71 33 -237 1 -307 -26 -57 -90 -128
-138 -154 -19 -10 -35 -21 -35 -24 0 -3 16 -15 35 -27 47 -31 63 -66 212 -440
4 -10 -33 -13 -165 -13 l-170 0 -78 197 c-58 145 -86 202 -105 215 -17 13 -50
21 -102 25 l-77 6 0 -222 0 -221 -155 0 -155 0 0 580 0 580 321 0 c259 0 333
-3 383 -16z m3226 -364 c91 -209 167 -380 170 -380 3 0 57 121 119 268 63 147
137 318 164 380 l49 112 124 0 124 0 0 -580 0 -580 -140 0 -140 0 -2 236 -3
235 -96 -233 -95 -233 -106 -3 -105 -3 -99 237 -99 236 -3 -236 -2 -236 -140
0 -140 0 0 580 0 580 128 0 128 0 164 -380z m1361 0 c90 -209 166 -380 169
-380 3 0 57 121 119 268 63 147 137 318 164 380 l49 112 124 0 124 0 0 -580 0
-580 -140 0 -140 0 -2 236 -3 235 -96 -233 -95 -233 -106 -3 -105 -3 -99 237
-99 236 -3 -236 -2 -236 -140 0 -140 0 0 580 0 580 128 0 128 0 165 -380z"/>
<path d="M5707 2269 c-143 -22 -215 -152 -204 -369 3 -59 12 -125 21 -151 38
-105 121 -162 237 -162 170 0 262 121 262 343 0 60 -6 116 -16 152 -42 140
-153 210 -300 187z"/>
<path d="M2213 1988 l-70 -163 135 -3 c74 -1 137 -1 139 2 2 2 -27 77 -65 166
l-69 162 -70 -164z"/>
<path d="M3310 2150 l0 -123 128 6 c140 5 183 16 206 52 18 28 21 97 5 127
-19 35 -76 50 -211 56 l-128 5 0 -123z"/>
<path d="M17720 2459 c-211 -23 -365 -157 -378 -330 -7 -96 18 -173 73 -225
59 -57 137 -91 296 -130 215 -53 259 -78 259 -145 0 -28 -6 -42 -26 -58 -45
-36 -90 -44 -213 -39 -114 5 -166 18 -312 82 -12 5 -24 -13 -57 -86 -23 -51
-42 -96 -42 -100 0 -12 110 -65 171 -82 96 -28 162 -37 276 -37 178 0 296 37
388 122 111 102 125 303 28 410 -65 72 -142 106 -356 159 -188 46 -236 85
-203 163 23 56 81 81 186 81 96 0 160 -17 256 -69 l62 -33 42 100 c50 115 52
108 -46 154 -110 52 -274 77 -404 63z"/>
<path d="M9557 2454 c-22 -22 13 -110 236 -604 l243 -535 111 -3 110 -3 103
228 c57 125 172 381 257 567 84 187 153 343 153 348 0 4 -61 8 -135 8 -120 0
-136 -2 -146 -18 -6 -10 -82 -182 -169 -383 -88 -204 -163 -364 -170 -364 -7
0 -83 165 -174 380 l-161 380 -126 3 c-69 1 -128 -1 -132 -4z"/>
<path d="M10870 1885 l0 -575 395 0 395 0 0 115 0 115 -260 0 -261 0 3 123 3
122 243 3 242 2 0 110 0 110 -245 0 -246 0 3 113 3 112 258 3 257 2 0 110 0
110 -395 0 -395 0 0 -575z"/>
<path d="M11820 1885 l0 -575 130 0 130 0 0 325 c0 209 4 325 10 325 5 0 118
-136 250 -302 133 -167 250 -313 260 -325 18 -21 29 -23 120 -23 l100 0 0 575
0 576 -132 -3 -133 -3 -3 -322 c-1 -178 -6 -323 -10 -323 -4 0 -123 146 -266
325 l-259 325 -98 0 -99 0 0 -575z"/>
<path d="M12977 2453 c-4 -3 -7 -55 -7 -114 l0 -109 168 -2 167 -3 5 -455 5
-455 142 -3 143 -3 2 458 3 458 168 3 167 2 0 115 0 115 -478 0 c-263 0 -482
-3 -485 -7z"/>
<path d="M14074 2446 c-3 -8 -4 -185 -1 -393 4 -405 6 -424 59 -528 30 -58
106 -134 166 -164 95 -48 289 -67 419 -41 167 34 281 139 331 305 12 40 16
130 19 443 l4 393 -138 -3 -138 -3 -5 -385 c-5 -381 -5 -386 -29 -434 -16 -33
-38 -57 -69 -77 -40 -25 -56 -29 -119 -29 -86 0 -138 22 -173 70 -47 65 -50
100 -50 492 l0 368 -135 0 c-109 0 -137 -3 -141 -14z"/>
<path d="M15280 1885 l0 -576 138 3 137 3 5 220 5 220 87 0 c125 -1 125 0 215
-230 41 -105 79 -196 85 -202 8 -9 52 -13 155 -13 112 0 144 3 140 13 -160
404 -164 410 -241 449 l-28 15 54 31 c116 65 172 164 170 302 -2 143 -62 239
-183 294 -76 35 -190 46 -491 46 l-248 0 0 -575z m597 332 c46 -25 63 -54 63
-112 0 -104 -41 -125 -245 -125 l-145 0 0 123 c0 68 3 127 8 131 4 5 70 6 147
4 107 -3 148 -8 172 -21z"/>
<path d="M16420 1885 l0 -575 395 0 395 0 0 115 0 115 -260 0 -261 0 3 123 3
122 243 3 242 2 0 110 0 110 -245 0 -246 0 3 113 3 112 258 3 257 2 0 110 0
110 -395 0 -395 0 0 -575z"/>
</g>
</svg>
